<svg width="36" height="36" viewBox="0 0 36 36" fill="none" xmlns="http://www.w3.org/2000/svg">
<path fill-rule="evenodd" clip-rule="evenodd" d="M6.54545 0C4.80949 0 3.14463 0.689609 1.91712 1.91712C0.689609 3.14463 0 4.80949 0 6.54545V29.4545C0 31.1905 0.689609 32.8554 1.91712 34.0829C3.14463 35.3104 4.80949 36 6.54545 36H29.4545C31.1905 36 32.8554 35.3104 34.0829 34.0829C35.3104 32.8554 36 31.1905 36 29.4545V6.54545C36 4.80949 35.3104 3.14463 34.0829 1.91712C32.8554 0.689609 31.1905 0 29.4545 0H6.54545ZM31.0909 18C31.0909 21.4719 29.7117 24.8016 27.2567 27.2567C24.8016 29.7117 21.4719 31.0909 18 31.0909C14.5281 31.0909 11.1984 29.7117 8.74333 27.2567C6.28831 24.8016 4.90909 21.4719 4.90909 18C4.90909 14.5281 6.28831 11.1984 8.74333 8.74333C11.1984 6.28831 14.5281 4.90909 18 4.90909C21.4719 4.90909 24.8016 6.28831 27.2567 8.74333C29.7117 11.1984 31.0909 14.5281 31.0909 18ZM9.84109 16.74C9.78546 16.7627 9.73762 16.8011 9.70335 16.8505C9.66908 16.8999 9.64986 16.9581 9.648 17.0182C9.648 17.1393 9.72818 17.2538 9.84109 17.2964L12.9976 18.4484L13.9533 23.148V23.1545C13.986 23.3307 14.0696 23.4934 14.1938 23.6225C14.3054 23.7306 14.4445 23.806 14.596 23.8406C14.7474 23.8752 14.9054 23.8677 15.0529 23.8189C15.1414 23.7813 15.2282 23.7398 15.3131 23.6945C15.4545 23.6152 15.5941 23.5328 15.732 23.4475C16.0527 23.2511 16.4585 22.9893 16.8529 22.734C17.3293 22.4243 17.8039 22.1118 18.2765 21.7964L18.396 21.7178L21.5133 23.9727C21.5534 24.0004 21.5996 24.0182 21.6479 24.0247C21.6962 24.0313 21.7454 24.0263 21.7915 24.0104C21.8831 23.9776 21.9551 23.8958 21.978 23.8009L24.9022 11.4971C24.9136 11.4445 24.9111 11.3899 24.895 11.3385C24.879 11.2872 24.8499 11.2409 24.8105 11.2042C24.7691 11.1697 24.7194 11.1466 24.6663 11.1371C24.6133 11.1277 24.5586 11.1322 24.5078 11.1502L9.84109 16.74ZM15.0267 22.4558L14.1595 18.2013L20.7196 14.814C20.758 14.7952 20.8017 14.7907 20.8431 14.8012C20.8844 14.8117 20.9207 14.8365 20.9455 14.8713C20.9695 14.9068 20.98 14.9497 20.9752 14.9923C20.9704 15.0349 20.9506 15.0744 20.9193 15.1036L15.9905 19.5251L15.0267 22.4558Z" fill="#EFF3FD"/>
</svg>
