<svg width="36" height="36" viewBox="0 0 36 36" fill="none" xmlns="http://www.w3.org/2000/svg">
<path fill-rule="evenodd" clip-rule="evenodd" d="M7.71492 0C5.66931 -1.50838e-07 3.70744 0.812413 2.26069 2.2586C0.813952 3.70479 0.000785565 5.66635 0 7.71196V28.2851C0 30.3312 0.812819 32.2935 2.25965 33.7404C3.70648 35.1872 5.6688 36 7.71492 36H28.288C30.3337 35.9992 32.2952 35.1861 33.7414 33.7393C35.1876 32.2926 36 30.3307 36 28.2851V7.71196C35.9992 5.66686 35.1865 3.70575 33.7404 2.25965C32.2943 0.813545 30.3331 0.000785217 28.288 0H7.71492ZM30.5071 7.72381C30.5071 8.31313 30.273 8.87831 29.8563 9.29503C29.4396 9.71174 28.8744 9.94585 28.2851 9.94585C27.6958 9.94585 27.1306 9.71174 26.7139 9.29503C26.2971 8.87831 26.063 8.31313 26.063 7.72381C26.063 7.13449 26.2971 6.5693 26.7139 6.15259C27.1306 5.73588 27.6958 5.50177 28.2851 5.50177C28.8744 5.50177 29.4396 5.73588 29.8563 6.15259C30.273 6.5693 30.5071 7.13449 30.5071 7.72381ZM18.0044 11.8361C16.3701 11.8361 14.8026 12.4853 13.6469 13.641C12.4912 14.7967 11.842 16.3641 11.842 17.9985C11.842 19.6329 12.4912 21.2003 13.6469 22.356C14.8026 23.5117 16.3701 24.161 18.0044 24.161C19.6388 24.161 21.2063 23.5117 22.362 22.356C23.5176 21.2003 24.1669 19.6329 24.1669 17.9985C24.1669 16.3641 23.5176 14.7967 22.362 13.641C21.2063 12.4853 19.6388 11.8361 18.0044 11.8361ZM8.87631 17.9985C8.87631 15.5784 9.83771 13.2573 11.549 11.546C13.2603 9.83474 15.5813 8.87334 18.0015 8.87334C20.4216 8.87334 22.7427 9.83474 24.454 11.546C26.1653 13.2573 27.1267 15.5784 27.1267 17.9985C27.1267 20.4187 26.1653 22.7397 24.454 24.451C22.7427 26.1623 20.4216 27.1237 18.0015 27.1237C15.5813 27.1237 13.2603 26.1623 11.549 24.451C9.83771 22.7397 8.87631 20.4187 8.87631 17.9985Z" fill="#EFF3FD"/>
</svg>
