<svg width="64" height="40" viewBox="0 0 64 40" fill="none" xmlns="http://www.w3.org/2000/svg">
<g filter="url(#filter0_d_75_933)">
<circle cx="20" cy="20" r="12" fill="#FFD500"/>
</g>
<g filter="url(#filter1_d_75_933)">
<path d="M32 8C35.1826 8 38.2348 9.26428 40.4853 11.5147C42.7357 13.7652 44 16.8174 44 20C44 23.1826 42.7357 26.2348 40.4853 28.4853C38.2348 30.7357 35.1826 32 32 32L32 20V8Z" fill="white"/>
</g>
<g filter="url(#filter2_d_75_933)">
<path d="M44 8C47.1826 8 50.2348 9.26428 52.4853 11.5147C54.7357 13.7652 56 16.8174 56 20C56 23.1826 54.7357 26.2348 52.4853 28.4853C50.2348 30.7357 47.1826 32 44 32L44 20V8Z" fill="white"/>
</g>
<defs>
<filter id="filter0_d_75_933" x="0" y="0" width="40" height="40" filterUnits="userSpaceOnUse" color-interpolation-filters="sRGB">
<feFlood flood-opacity="0" result="BackgroundImageFix"/>
<feColorMatrix in="SourceAlpha" type="matrix" values="0 0 0 0 0 0 0 0 0 0 0 0 0 0 0 0 0 0 127 0" result="hardAlpha"/>
<feOffset/>
<feGaussianBlur stdDeviation="4"/>
<feComposite in2="hardAlpha" operator="out"/>
<feColorMatrix type="matrix" values="0 0 0 0 0 0 0 0 0 0 0 0 0 0 0 0 0 0 0.2 0"/>
<feBlend mode="normal" in2="BackgroundImageFix" result="effect1_dropShadow_75_933"/>
<feBlend mode="normal" in="SourceGraphic" in2="effect1_dropShadow_75_933" result="shape"/>
</filter>
<filter id="filter1_d_75_933" x="24" y="0" width="28" height="40" filterUnits="userSpaceOnUse" color-interpolation-filters="sRGB">
<feFlood flood-opacity="0" result="BackgroundImageFix"/>
<feColorMatrix in="SourceAlpha" type="matrix" values="0 0 0 0 0 0 0 0 0 0 0 0 0 0 0 0 0 0 127 0" result="hardAlpha"/>
<feOffset/>
<feGaussianBlur stdDeviation="4"/>
<feComposite in2="hardAlpha" operator="out"/>
<feColorMatrix type="matrix" values="0 0 0 0 0 0 0 0 0 0 0 0 0 0 0 0 0 0 0.2 0"/>
<feBlend mode="normal" in2="BackgroundImageFix" result="effect1_dropShadow_75_933"/>
<feBlend mode="normal" in="SourceGraphic" in2="effect1_dropShadow_75_933" result="shape"/>
</filter>
<filter id="filter2_d_75_933" x="36" y="0" width="28" height="40" filterUnits="userSpaceOnUse" color-interpolation-filters="sRGB">
<feFlood flood-opacity="0" result="BackgroundImageFix"/>
<feColorMatrix in="SourceAlpha" type="matrix" values="0 0 0 0 0 0 0 0 0 0 0 0 0 0 0 0 0 0 127 0" result="hardAlpha"/>
<feOffset/>
<feGaussianBlur stdDeviation="4"/>
<feComposite in2="hardAlpha" operator="out"/>
<feColorMatrix type="matrix" values="0 0 0 0 0 0 0 0 0 0 0 0 0 0 0 0 0 0 0.2 0"/>
<feBlend mode="normal" in2="BackgroundImageFix" result="effect1_dropShadow_75_933"/>
<feBlend mode="normal" in="SourceGraphic" in2="effect1_dropShadow_75_933" result="shape"/>
</filter>
</defs>
</svg>
