<svg width="248" height="124" viewBox="0 0 248 124" fill="none" xmlns="http://www.w3.org/2000/svg">
<circle cx="62" cy="62" r="62" fill="#FFD500"/>
<path d="M124 0C140.443 0 156.213 6.53212 167.841 18.1594C179.468 29.7866 186 45.5566 186 62C186 78.4434 179.468 94.2134 167.841 105.841C156.213 117.468 140.443 124 124 124L124 62V0Z" fill="#3357A3"/>
<path d="M186 0C202.443 0 218.213 6.53212 229.841 18.1594C241.468 29.7866 248 45.5566 248 62C248 78.4434 241.468 94.2134 229.841 105.841C218.213 117.468 202.443 124 186 124L186 62V0Z" fill="#3357A3"/>
</svg>
