<svg width="50" height="50" viewBox="0 0 50 50" fill="none" xmlns="http://www.w3.org/2000/svg">
<rect width="50" height="50" rx="10" fill="white"/>
<path d="M30.6787 12.1122V37.5154C30.6787 40.3436 32.594 41.9355 34.6942 41.9355C36.6095 41.9355 38.7096 40.5976 38.7096 37.5154V12.2984C38.7096 9.69038 36.7943 8.06458 34.6942 8.06458C32.594 8.06458 30.6787 9.85974 30.6787 12.1122ZM20.178 25.0001V37.5154C20.178 40.3605 22.127 41.9355 24.1935 41.9355C26.1088 41.9355 28.209 40.5976 28.209 37.5154V25.1863C28.209 22.5783 26.2936 20.9525 24.1935 20.9525C22.0934 20.9525 20.178 22.7476 20.178 25.0001ZM13.6928 33.8573C15.9106 33.8573 17.7083 35.6694 17.7083 37.888C17.7083 38.9614 17.2852 39.991 16.5322 40.75C15.7791 41.5091 14.7578 41.9355 13.6928 41.9355C12.6279 41.9355 11.6065 41.5091 10.8535 40.75C10.1004 39.991 9.67737 38.9614 9.67737 37.888C9.67737 35.6694 11.4751 33.8573 13.6928 33.8573Z" fill="#3357A3"/>
</svg>
