<svg width="50" height="50" viewBox="0 0 50 50" fill="none" xmlns="http://www.w3.org/2000/svg">
<rect width="50" height="50" rx="10" fill="white"/>
<path d="M37.456 34.9854C35.9006 37.2328 33.7996 39.0481 31.3503 40.2608C28.901 41.4735 26.1837 42.044 23.4534 41.9186C20.7232 41.7931 18.0696 40.976 15.7417 39.5438C13.4139 38.1116 11.4882 36.1114 10.1454 33.7309C8.80259 31.3503 8.08673 28.6677 8.06502 25.9346C8.04332 23.2016 8.71647 20.5079 10.0213 18.1063C11.3261 15.7048 13.2198 13.6742 15.5246 12.2052C17.8294 10.7362 20.4697 9.87704 23.1976 9.70827L24.1935 25.8065L37.456 34.9854Z" fill="#3357A3"/>
<path d="M25.6562 8.09447C28.7896 7.89844 31.9076 8.66966 34.5883 10.3038C37.2691 11.9379 39.3831 14.3561 40.6445 17.2311L26.6129 23.3872L25.6562 8.09447Z" fill="#3357A3"/>
<path d="M40.9877 19.6946C41.8385 21.9999 42.1224 24.476 41.8155 26.9141C41.5085 29.3521 40.6197 31.6805 39.2241 33.703L26.6129 25.0001L40.9877 19.6946Z" fill="#3357A3"/>
</svg>
