<svg width="50" height="50" viewBox="0 0 50 50" fill="none" xmlns="http://www.w3.org/2000/svg">
<rect width="50" height="50" rx="10" fill="white"/>
<path d="M34.694 34.3575C32.7549 34.3576 31.1785 35.9431 31.1784 37.8878C31.1784 38.8299 31.5501 39.7326 32.2097 40.3976C32.8692 41.0624 33.763 41.4356 34.694 41.4357C35.6251 41.4357 36.5188 41.0624 37.1784 40.3976C37.8381 39.7326 38.2097 38.8299 38.2097 37.8878C38.2096 35.9431 36.6332 34.3575 34.694 34.3575ZM24.1931 21.4523C22.3635 21.4525 20.6784 22.8606 20.6784 25.1866V37.5157C20.6785 38.9354 21.1576 39.9033 21.8102 40.5177C22.471 41.1397 23.3474 41.4356 24.1931 41.4357C25.9809 41.4357 27.7085 40.087 27.7087 37.5157V25.0001C27.7087 23.0309 26.0241 21.4523 24.1931 21.4523ZM13.6931 8.56458C11.8635 8.56458 10.1777 9.972 10.1774 12.298V37.5157C10.1775 38.9354 10.6567 39.9033 11.3093 40.5177C11.9702 41.14 12.8472 41.4357 13.6931 41.4357C15.5105 41.4356 17.2085 40.0739 17.2087 37.5157V12.1124C17.2087 10.1432 15.524 8.56469 13.6931 8.56458Z" fill="#3357A3" stroke="#3357A3"/>
<path d="M30.6401 21.179L37.5721 20.9471L37.3644 13.9891M37.5721 20.9471L25.9307 10.0595L37.5721 20.9471Z" fill="#3357A3"/>
<path d="M30.6401 21.179L37.5721 20.9471M37.5721 20.9471L37.3644 13.9891M37.5721 20.9471L25.9307 10.0595" stroke="#3357A3" stroke-width="0.5" stroke-linecap="round" stroke-linejoin="round"/>
</svg>
