<svg width="50" height="50" viewBox="0 0 50 50" fill="none" xmlns="http://www.w3.org/2000/svg">
<rect width="50" height="50" rx="10" fill="white"/>
<path d="M21.6503 32.0088C21.9739 32.0088 22.2388 32.2713 22.2388 32.5959L22.2373 35.9277C22.2373 36.2514 22.442 36.3492 22.6932 36.1437L27.2905 32.3806C27.5417 32.1751 28.0113 32.008 28.3349 32.008L35.9405 32.0128C36.844 31.9599 37.6121 30.8949 37.6668 30.0419L37.6569 19.4153C37.6569 19.0917 37.9219 18.8959 38.2465 18.8959H39.7191C40.0429 18.8959 40.3079 19.0909 40.3079 19.4153L40.3225 30.3104C40.3225 32.6661 38.5409 35.2045 35.8907 35.2045H29.2825C28.9588 35.2045 28.4884 35.0993 28.238 35.304L20.0398 41.8771C19.7886 42.0826 19.5839 41.917 19.5839 41.5934L19.5873 35.2803C19.5873 34.9575 19.3222 34.6745 18.9985 34.6745L16.0442 34.6704C13.7415 34.6703 11.4158 32.4197 11.2903 30.1153V25.5286C11.2903 25.2041 11.7127 25.4185 12.0372 25.4185H13.5099C13.8336 25.4185 14.0986 25.4438 14.0986 25.7675L14.1141 30.0656C14.1141 30.8958 15.1513 31.9337 16.0084 32.0658L21.6503 32.0088ZM17.839 22.9452C17.6882 23.2324 17.3 23.4664 16.9754 23.4664H12.0372C11.7135 23.4664 11.4485 23.2014 11.4485 22.8777V21.4051C11.4485 21.0813 11.7135 20.8163 12.0372 20.8163H15.3741C15.6977 20.8163 16.0867 20.5815 16.2376 20.2953L20.7051 11.8091C20.856 11.5229 21.1202 11.5123 21.2922 11.7863L25.0636 17.7861C25.2364 18.0609 25.5055 18.0529 25.662 17.7691L30.9223 8.25062C31.0788 7.96767 31.3504 7.95871 31.5258 8.23111L35.1323 13.8411C35.3077 14.1135 35.7154 14.3362 36.0399 14.3362H39.7183C40.0421 14.3362 40.307 14.6011 40.307 14.9257V16.3976C40.307 16.7213 40.0421 16.9872 39.7184 16.9872H34.5909C34.2673 16.9872 33.8587 16.7646 33.6833 16.4923L31.6937 13.4059C31.5184 13.1335 31.2461 13.1424 31.0895 13.4263L25.8089 22.9772C25.6524 23.2602 25.3832 23.2676 25.2103 22.9944L21.4985 17.085C21.3265 16.8111 21.0615 16.8208 20.9106 17.107L17.839 22.9452Z" fill="#3357A3"/>
</svg>
